<svg xmlns="http://www.w3.org/2000/svg" width="760" height="324" font-family="-apple-system,Segoe UI,Roboto,sans-serif" font-size="13">
<rect width="760" height="324" fill="white"/>
<text x="16" y="24" font-size="16" font-weight="700">Ping-pong latency over a socketpair (1 byte)</text>
<text x="16" y="42" fill="#5f6368">round-trip latency — lower is better ↓ (µs per round-trip)</text>
<text x="240" y="72" text-anchor="end">Miou</text>
<rect x="250" y="54" width="440" height="26" rx="3" fill="#8430ce" opacity="0.72"/>
<text x="698" y="72" fill="#202124">23.5</text>
<text x="240" y="110" text-anchor="end">Lwt_effects Compat (epoll)</text>
<rect x="250" y="92" width="217" height="26" rx="3" fill="#1a73e8" opacity="0.72"/>
<text x="475" y="110" fill="#202124">11.6</text>
<text x="240" y="148" text-anchor="end">Lwt_effects direct (epoll)</text>
<rect x="250" y="130" width="206" height="26" rx="3" fill="#188038" opacity="0.72"/>
<text x="464" y="148" fill="#202124">11.0</text>
<text x="240" y="186" text-anchor="end">Lwt (epoll)</text>
<rect x="250" y="168" width="191" height="26" rx="3" fill="#9aa0a6" opacity="0.72"/>
<text x="449" y="186" fill="#202124">10.2</text>
<text x="240" y="224" text-anchor="end">Lwt_effects Compat (io_uring)</text>
<rect x="250" y="206" width="139" height="26" rx="3" fill="#1a73e8" opacity="0.72"/>
<text x="397" y="224" fill="#202124">7.4</text>
<text x="240" y="262" text-anchor="end">Eio (io_uring)</text>
<rect x="250" y="244" width="129" height="26" rx="3" fill="#e8710a" opacity="0.72"/>
<text x="387" y="262" fill="#202124">6.9</text>
<text x="240" y="300" text-anchor="end" font-weight="700">Lwt_effects direct (io_uring)</text>
<rect x="250" y="282" width="114" height="26" rx="3" fill="#188038"/>
<text x="372" y="300" fill="#202124" font-weight="700">6.1 ★</text>
</svg>