<svg xmlns="http://www.w3.org/2000/svg" width="760" height="400" font-family="-apple-system,Segoe UI,Roboto,sans-serif" font-size="13">
<rect width="760" height="400" fill="white"/>
<text x="16" y="24" font-size="16" font-weight="700">Ping-pong latency over a socketpair (1 byte)</text>
<text x="16" y="42" fill="#5f6368">round-trip latency (bigarray rows for io_uring) — lower is better ↓ (us per round-trip)</text>
<text x="240" y="72" text-anchor="end">Miou (ppoll)</text>
<rect x="250" y="54" width="440" height="26" rx="3" fill="#8430ce"/>
<text x="698" y="72" fill="#202124">21.9</text>
<text x="240" y="110" text-anchor="end">Eio (io_uring)</text>
<rect x="250" y="92" width="135" height="26" rx="3" fill="#e8710a"/>
<text x="393" y="110" fill="#202124">6.7</text>
<text x="240" y="148" text-anchor="end" font-weight="700">lab: breaking direct + own ring (June)</text>
<rect x="250" y="130" width="123" height="26" rx="3" fill="#78909c"/>
<text x="381" y="148" fill="#202124" font-weight="700">6.1 ★</text>
<text x="240" y="186" text-anchor="end">Lwt lean (io_uring)</text>
<rect x="250" y="168" width="143" height="26" rx="3" fill="#e6007e"/>
<text x="401" y="186" fill="#202124">7.1</text>
<text x="240" y="224" text-anchor="end">Lwt lean (epoll)</text>
<rect x="250" y="206" width="193" height="26" rx="3" fill="#f3a6ce"/>
<text x="451" y="224" fill="#202124">9.6</text>
<text x="240" y="262" text-anchor="end">Lwt effects (io_uring)</text>
<rect x="250" y="244" width="141" height="26" rx="3" fill="#1a73e8"/>
<text x="399" y="262" fill="#202124">7.0</text>
<text x="240" y="300" text-anchor="end">Lwt effects (epoll)</text>
<rect x="250" y="282" width="191" height="26" rx="3" fill="#a8c7fa"/>
<text x="449" y="300" fill="#202124">9.5</text>
<text x="240" y="338" text-anchor="end">Lwt classic (io_uring)</text>
<rect x="250" y="320" width="141" height="26" rx="3" fill="#00796b"/>
<text x="399" y="338" fill="#202124">7.0</text>
<text x="240" y="376" text-anchor="end">Lwt classic (epoll)</text>
<rect x="250" y="358" width="193" height="26" rx="3" fill="#b2dfdb"/>
<text x="451" y="376" fill="#202124">9.6</text>
</svg>