<svg xmlns="http://www.w3.org/2000/svg" width="760" height="286" font-family="-apple-system,Segoe UI,Roboto,sans-serif" font-size="13">
<rect width="760" height="286" fill="white"/>
<text x="16" y="24" font-size="16" font-weight="700">Echo TCP - 100 concurrent connections</text>
<text x="16" y="42" fill="#5f6368">100 conn x 1000 msgs x 64 B — higher is better ↑ (round-trips / second)</text>
<text x="240" y="72" text-anchor="end" font-weight="700">Lwt (classic core, io_uring)</text>
<rect x="250" y="54" width="440" height="26" rx="3" fill="#9aa0a6"/>
<text x="698" y="72" fill="#202124" font-weight="700">96,187 ★</text>
<text x="240" y="110" text-anchor="end">Lwt (effect core, io_uring)</text>
<rect x="250" y="92" width="436" height="26" rx="3" fill="#1a73e8" opacity="0.72"/>
<text x="694" y="110" fill="#202124">95,302</text>
<text x="240" y="148" text-anchor="end">Eio (io_uring)</text>
<rect x="250" y="130" width="401" height="26" rx="3" fill="#e8710a" opacity="0.72"/>
<text x="659" y="148" fill="#202124">87,750</text>
<text x="240" y="186" text-anchor="end">Lwt (effect core, epoll)</text>
<rect x="250" y="168" width="354" height="26" rx="3" fill="#1a73e8" opacity="0.72"/>
<text x="612" y="186" fill="#202124">77,422</text>
<text x="240" y="224" text-anchor="end">Lwt (classic core, epoll)</text>
<rect x="250" y="206" width="335" height="26" rx="3" fill="#9aa0a6" opacity="0.72"/>
<text x="593" y="224" fill="#202124">73,145</text>
<text x="240" y="262" text-anchor="end">Miou</text>
<rect x="250" y="244" width="100" height="26" rx="3" fill="#8430ce" opacity="0.72"/>
<text x="358" y="262" fill="#202124">21,898</text>
</svg>