<svg xmlns="http://www.w3.org/2000/svg" width="760" height="286" font-family="-apple-system,Segoe UI,Roboto,sans-serif" font-size="13">
<rect width="760" height="286" fill="white"/>
<text x="16" y="24" font-size="16" font-weight="700">Scheduling - pure cooperative yielding</text>
<text x="16" y="42" fill="#5f6368">1000 fibers x 1000 yields, no I/O — lower is better ↓ (ns per yield)</text>
<text x="240" y="72" text-anchor="end">Miou (ppoll)</text>
<rect x="250" y="54" width="440" height="26" rx="3" fill="#8430ce"/>
<text x="698" y="72" fill="#202124">425</text>
<text x="240" y="110" text-anchor="end">Eio</text>
<rect x="250" y="92" width="91" height="26" rx="3" fill="#e8710a"/>
<text x="349" y="110" fill="#202124">88.0</text>
<text x="240" y="148" text-anchor="end" font-weight="700">lab: breaking direct yield</text>
<rect x="250" y="130" width="61" height="26" rx="3" fill="#78909c"/>
<text x="319" y="148" fill="#202124" font-weight="700">59.0 ★</text>
<text x="240" y="186" text-anchor="end">Lwt_direct on effect core</text>
<rect x="250" y="168" width="75" height="26" rx="3" fill="#6ea8dc"/>
<text x="333" y="186" fill="#202124">72.0</text>
<text x="240" y="224" text-anchor="end">Lwt effects (pause)</text>
<rect x="250" y="206" width="238" height="26" rx="3" fill="#e6007e"/>
<text x="496" y="224" fill="#202124">230</text>
<text x="240" y="262" text-anchor="end">Lwt classic (pause)</text>
<rect x="250" y="244" width="254" height="26" rx="3" fill="#b2dfdb"/>
<text x="512" y="262" fill="#202124">245</text>
</svg>