<svg xmlns="http://www.w3.org/2000/svg" width="760" height="324" font-family="-apple-system,Segoe UI,Roboto,sans-serif" font-size="13">
<rect width="760" height="324" fill="white"/>
<text x="16" y="24" font-size="16" font-weight="700">Echo TCP - 100 concurrent connections</text>
<text x="16" y="42" fill="#5f6368">100 conn x 1000 msgs x 64 B — higher is better ↑ (round-trips / second)</text>
<text x="240" y="72" text-anchor="end" font-weight="700">lab: breaking + own ring</text>
<rect x="250" y="54" width="440" height="26" rx="3" fill="#455a64"/>
<text x="698" y="72" fill="#202124" font-weight="700">108,037 ★</text>
<text x="240" y="110" text-anchor="end">Lwt classic (io_uring)</text>
<rect x="250" y="92" width="392" height="26" rx="3" fill="#00796b" opacity="0.72"/>
<text x="650" y="110" fill="#202124">96,187</text>
<text x="240" y="148" text-anchor="end">Lwt effect core (io_uring)</text>
<rect x="250" y="130" width="388" height="26" rx="3" fill="#1a73e8" opacity="0.72"/>
<text x="646" y="148" fill="#202124">95,302</text>
<text x="240" y="186" text-anchor="end">Eio (io_uring)</text>
<rect x="250" y="168" width="357" height="26" rx="3" fill="#e8710a" opacity="0.72"/>
<text x="615" y="186" fill="#202124">87,750</text>
<text x="240" y="224" text-anchor="end">Lwt effect core (epoll)</text>
<rect x="250" y="206" width="315" height="26" rx="3" fill="#a8c7fa" opacity="0.72"/>
<text x="573" y="224" fill="#202124">77,422</text>
<text x="240" y="262" text-anchor="end">Lwt classic (epoll)</text>
<rect x="250" y="244" width="298" height="26" rx="3" fill="#b2dfdb" opacity="0.72"/>
<text x="556" y="262" fill="#202124">73,145</text>
<text x="240" y="300" text-anchor="end">Miou (ppoll)</text>
<rect x="250" y="282" width="89" height="26" rx="3" fill="#8430ce" opacity="0.72"/>
<text x="347" y="300" fill="#202124">21,898</text>
</svg>