<svg xmlns="http://www.w3.org/2000/svg" width="760" height="286" font-family="-apple-system,Segoe UI,Roboto,sans-serif" font-size="13">
<rect width="760" height="286" fill="white"/>
<text x="16" y="24" font-size="16" font-weight="700">Realistic HTTP - latency tail at 20k req/s</text>
<text x="16" y="42" fill="#5f6368">GET / (2 KB), wrk2 -R 20000, p99 (median over rounds) — lower is better ↓ (ms)</text>
<text x="240" y="72" text-anchor="end">cohttp-lwt, effect core (libev)</text>
<rect x="250" y="54" width="440" height="26" rx="3" fill="#a8c7fa" opacity="0.72"/>
<text x="698" y="72" fill="#202124">18.5</text>
<text x="240" y="110" text-anchor="end">cohttp-lwt, effect core (io_uring)</text>
<rect x="250" y="92" width="411" height="26" rx="3" fill="#1a73e8" opacity="0.72"/>
<text x="669" y="110" fill="#202124">17.3</text>
<text x="240" y="148" text-anchor="end">cohttp-lwt, classic (libev)</text>
<rect x="250" y="130" width="390" height="26" rx="3" fill="#b2dfdb" opacity="0.72"/>
<text x="648" y="148" fill="#202124">16.4</text>
<text x="240" y="186" text-anchor="end">cohttp-lwt, classic (io_uring)</text>
<rect x="250" y="168" width="312" height="26" rx="3" fill="#00796b" opacity="0.72"/>
<text x="570" y="186" fill="#202124">13.1</text>
<text x="240" y="224" text-anchor="end">cohttp-eio</text>
<rect x="250" y="206" width="202" height="26" rx="3" fill="#e8710a" opacity="0.72"/>
<text x="460" y="224" fill="#202124">8.5</text>
<text x="240" y="262" text-anchor="end" font-weight="700">httpcats (Miou, 1 domain)</text>
<rect x="250" y="244" width="124" height="26" rx="3" fill="#8430ce"/>
<text x="382" y="262" fill="#202124" font-weight="700">5.2 ★</text>
</svg>