<svg xmlns="http://www.w3.org/2000/svg" width="760" height="324" font-family="-apple-system,Segoe UI,Roboto,sans-serif" font-size="13">
<rect width="760" height="324" fill="white"/>
<text x="16" y="24" font-size="16" font-weight="700">cohttp - unmodified cohttp-lwt-unix, recompiled</text>
<text x="16" y="42" fill="#5f6368">50 conn x 200 req, GET /, new connection per request — higher is better ↑ (requests / second)</text>
<text x="240" y="72" text-anchor="end" font-weight="700">cohttp-eio</text>
<rect x="250" y="54" width="440" height="26" rx="3" fill="#e8710a"/>
<text x="698" y="72" fill="#202124" font-weight="700">9,368 ★</text>
<text x="240" y="110" text-anchor="end">Lwt effect core (io_uring, multishot + static resolver)</text>
<rect x="250" y="92" width="375" height="26" rx="3" fill="#1a73e8" opacity="0.72"/>
<text x="633" y="110" fill="#202124">7,978</text>
<text x="240" y="148" text-anchor="end">Lwt classic (io_uring, static resolver)</text>
<rect x="250" y="130" width="365" height="26" rx="3" fill="#00796b" opacity="0.72"/>
<text x="623" y="148" fill="#202124">7,766</text>
<text x="240" y="186" text-anchor="end">Lwt effect core (io_uring, multishot)</text>
<rect x="250" y="168" width="375" height="26" rx="3" fill="#1a73e8" opacity="0.72"/>
<text x="633" y="186" fill="#202124">7,975</text>
<text x="240" y="224" text-anchor="end">Lwt classic (io_uring)</text>
<rect x="250" y="206" width="337" height="26" rx="3" fill="#00796b" opacity="0.72"/>
<text x="595" y="224" fill="#202124">7,172</text>
<text x="240" y="262" text-anchor="end">Lwt effect core (epoll)</text>
<rect x="250" y="244" width="327" height="26" rx="3" fill="#a8c7fa" opacity="0.72"/>
<text x="585" y="262" fill="#202124">6,957</text>
<text x="240" y="300" text-anchor="end">Lwt classic (epoll)</text>
<rect x="250" y="282" width="301" height="26" rx="3" fill="#b2dfdb" opacity="0.72"/>
<text x="559" y="300" fill="#202124">6,403</text>
</svg>